<svg xmlns="http://www.w3.org/2000/svg" width="765.915" height="427.426" viewBox="0 0 765.915 427.426">
  <path id="Path_9338" data-name="Path 9338" d="M758.894,422.21l-14.5,0h-5.4l-.327-.331a12.1,12.1,0,0,0-3.489-2.631,2.541,2.541,0,0,0-2.708,0,11.994,11.994,0,0,0-3.477,2.633l-.328.331-16.863,0-.321-.332a12.132,12.132,0,0,0-3.49-2.633,2.53,2.53,0,0,0-2.7,0,12.149,12.149,0,0,0-3.492,2.635l-.32.332H689.441v.008h-8.683l-.321-.332a12.129,12.129,0,0,0-3.49-2.63,2.539,2.539,0,0,0-2.708,0,12.1,12.1,0,0,0-3.489,2.633l-.32.332-16.859,0-.322-.331a12.135,12.135,0,0,0-3.489-2.633,2.533,2.533,0,0,0-2.705,0,12.159,12.159,0,0,0-3.492,2.635l-.32.331H631.212v.009h-8.682l-.322-.331a12.122,12.122,0,0,0-3.49-2.631,2.539,2.539,0,0,0-2.707,0,12.085,12.085,0,0,0-3.489,2.632l-.32.332-16.858,0-.322-.332a12.121,12.121,0,0,0-3.489-2.633,2.534,2.534,0,0,0-2.7,0,12.143,12.143,0,0,0-3.492,2.635l-.321.331H572.983v.008H564.3l-.322-.332a12.118,12.118,0,0,0-3.49-2.63,2.537,2.537,0,0,0-2.707,0,12.1,12.1,0,0,0-3.489,2.633l-.321.332-16.858,0-.323-.331A12.113,12.113,0,0,0,533.3,419.3a2.532,2.532,0,0,0-2.7,0,12.172,12.172,0,0,0-3.492,2.635l-.321.332H514.753v.009h-8.682l-.322-.332a12.133,12.133,0,0,0-3.489-2.63,2.54,2.54,0,0,0-2.708,0,12.08,12.08,0,0,0-3.489,2.632l-.321.332-16.858,0-.322-.331a12.131,12.131,0,0,0-3.49-2.633,2.533,2.533,0,0,0-2.7,0,12.164,12.164,0,0,0-3.492,2.635l-.32.332H456.525v.008h-8.682l-.322-.331a12.126,12.126,0,0,0-3.489-2.63,2.54,2.54,0,0,0-2.708,0,12.1,12.1,0,0,0-3.489,2.633l-.32.332-16.859,0-.322-.332a12.113,12.113,0,0,0-3.489-2.633,2.53,2.53,0,0,0-2.7,0,12.15,12.15,0,0,0-3.492,2.635l-.32.332-20.714.009-.321-.332a12.145,12.145,0,0,0-3.49-2.63,2.539,2.539,0,0,0-2.708,0,12.1,12.1,0,0,0-3.489,2.633l-.32.332-16.859,0-.322-.332a12.145,12.145,0,0,0-3.489-2.633,2.534,2.534,0,0,0-2.7,0,12.173,12.173,0,0,0-3.492,2.636l-.32.331-20.714.009-.322-.331a12.131,12.131,0,0,0-3.489-2.631,2.541,2.541,0,0,0-2.707,0A12.09,12.09,0,0,0,321.376,422l-.321.332-16.858,0-.322-.332a12.14,12.14,0,0,0-3.489-2.633,2.532,2.532,0,0,0-2.7,0,12.148,12.148,0,0,0-3.492,2.635l-.321.331-20.713.009-.322-.332a12.142,12.142,0,0,0-3.489-2.631,2.54,2.54,0,0,0-2.708,0,12.1,12.1,0,0,0-3.489,2.633l-.321.331-16.859,0-.321-.331a12.125,12.125,0,0,0-3.49-2.633,2.534,2.534,0,0,0-2.7,0,12.174,12.174,0,0,0-3.492,2.635l-.32.332-20.714.009-.322-.332a12.145,12.145,0,0,0-3.49-2.63,2.542,2.542,0,0,0-2.708,0,12.088,12.088,0,0,0-3.489,2.633l-.32.332-16.859,0-.322-.331a12.139,12.139,0,0,0-3.489-2.633,2.535,2.535,0,0,0-2.705,0,12.172,12.172,0,0,0-3.492,2.635l-.321.332-20.714.009-.322-.331a12.115,12.115,0,0,0-3.49-2.63,2.539,2.539,0,0,0-2.708,0,12.084,12.084,0,0,0-3.489,2.633l-.321.331-16.858,0-.322-.332a12.132,12.132,0,0,0-3.49-2.633,2.529,2.529,0,0,0-2.7,0,12.14,12.14,0,0,0-3.492,2.635l-.321.332-20.714.009-.322-.332a12.137,12.137,0,0,0-3.489-2.63,2.539,2.539,0,0,0-2.708,0,12.089,12.089,0,0,0-3.489,2.633l-.321.332-16.859,0-.322-.332a12.123,12.123,0,0,0-3.489-2.633,2.533,2.533,0,0,0-2.7,0,12.166,12.166,0,0,0-3.492,2.636l-.321.331-20.713.009-.322-.331a12.131,12.131,0,0,0-3.489-2.631,3.576,3.576,0,0,0-1.352-.39,3.585,3.585,0,0,0-1.356.391,12.1,12.1,0,0,0-3.489,2.633l-.321.332-16.858,0-.322-.331a12.139,12.139,0,0,0-3.49-2.633,3.587,3.587,0,0,0-1.352-.391,3.585,3.585,0,0,0-1.353.391,7.721,7.721,0,0,0-1.487.9A15.512,15.512,0,0,1,2.3,422.092q-.317.165-.664.331H.123L.115,401.216l.331-.322a12.125,12.125,0,0,0,2.63-3.489,3.572,3.572,0,0,0,.391-1.352,3.593,3.593,0,0,0-.391-1.356,12.1,12.1,0,0,0-2.633-3.489l-.331-.321,0-16.858.331-.322a12.11,12.11,0,0,0,2.633-3.49,3.558,3.558,0,0,0,.391-1.352,3.584,3.584,0,0,0-.391-1.353,12.163,12.163,0,0,0-2.635-3.492L.107,363.7.1,342.986l.332-.322a12.136,12.136,0,0,0,2.63-3.489,3.589,3.589,0,0,0,.391-1.353,3.611,3.611,0,0,0-.391-1.355,12.1,12.1,0,0,0-2.633-3.489l-.332-.32,0-16.859.331-.322a12.13,12.13,0,0,0,2.633-3.489,3.572,3.572,0,0,0,.391-1.353,3.581,3.581,0,0,0-.391-1.352,12.173,12.173,0,0,0-2.635-3.492l-.332-.32L.081,284.757l.331-.321a12.139,12.139,0,0,0,2.631-3.49,3.575,3.575,0,0,0,.39-1.352,3.594,3.594,0,0,0-.391-1.355A12.08,12.08,0,0,0,.41,274.749l-.332-.32,0-16.859.331-.322a12.139,12.139,0,0,0,2.633-3.489,3.585,3.585,0,0,0,.391-1.352,3.581,3.581,0,0,0-.392-1.352A12.157,12.157,0,0,0,.4,247.563l-.332-.321L.064,226.528l.332-.322a12.125,12.125,0,0,0,2.63-3.489,3.571,3.571,0,0,0,.391-1.352,3.594,3.594,0,0,0-.391-1.355A12.1,12.1,0,0,0,.393,216.52l-.332-.32,0-16.859.332-.322a12.123,12.123,0,0,0,2.633-3.49,3.572,3.572,0,0,0,.391-1.352,3.584,3.584,0,0,0-.391-1.353,12.172,12.172,0,0,0-2.635-3.492l-.332-.32L.047,168.3l.331-.322a12.13,12.13,0,0,0,2.631-3.489,3.581,3.581,0,0,0,.39-1.352,3.586,3.586,0,0,0-.391-1.356,12.088,12.088,0,0,0-2.633-3.488l-.332-.321,0-16.859.331-.321a12.147,12.147,0,0,0,2.633-3.49,3.573,3.573,0,0,0,.391-1.352,3.583,3.583,0,0,0-.391-1.352A12.166,12.166,0,0,0,.371,131.1l-.331-.32L.03,110.07l.331-.322a12.13,12.13,0,0,0,2.631-3.489,3.578,3.578,0,0,0,.39-1.352,3.592,3.592,0,0,0-.391-1.355,12.1,12.1,0,0,0-2.632-3.489l-.332-.32,0-16.859.332-.322a12.122,12.122,0,0,0,2.633-3.489,3.583,3.583,0,0,0,.391-1.352,3.6,3.6,0,0,0-.392-1.352A12.16,12.16,0,0,0,.354,72.875l-.332-.321L.013,51.841l.332-.322a12.137,12.137,0,0,0,2.63-3.49,3.585,3.585,0,0,0,.391-1.352,3.611,3.611,0,0,0-.391-1.355A12.1,12.1,0,0,0,.342,41.833L.01,41.513l0-16.858.331-.322a12.147,12.147,0,0,0,2.633-3.49,3.571,3.571,0,0,0,.391-1.352,3.581,3.581,0,0,0-.391-1.352A12.164,12.164,0,0,0,.337,14.647l-.332-.322L0,.22l9.949,0,.322.332a12.129,12.129,0,0,0,3.49,2.63,3.586,3.586,0,0,0,1.352.391,3.592,3.592,0,0,0,1.355-.391A12.1,12.1,0,0,0,19.957.545l.321-.332,16.859,0,.322.331a12.139,12.139,0,0,0,3.489,2.633,3.571,3.571,0,0,0,1.352.391,3.585,3.585,0,0,0,1.352-.391A12.18,12.18,0,0,0,47.145.54l.321-.332L68.178.2,68.5.531A12.13,12.13,0,0,0,71.99,3.162a3.577,3.577,0,0,0,1.352.39A3.6,3.6,0,0,0,74.7,3.16,12.1,12.1,0,0,0,78.186.528L78.507.2l16.858,0,.322.332a12.131,12.131,0,0,0,3.49,2.633,3.586,3.586,0,0,0,1.352.391,3.579,3.579,0,0,0,1.353-.392A12.141,12.141,0,0,0,105.373.523l.321-.332L126.408.183l.322.331a12.125,12.125,0,0,0,3.489,2.63,3.587,3.587,0,0,0,1.352.391,3.6,3.6,0,0,0,1.356-.391A12.1,12.1,0,0,0,136.416.511l.321-.332,16.859,0,.322.332a12.114,12.114,0,0,0,3.489,2.633,3.572,3.572,0,0,0,1.352.391,3.584,3.584,0,0,0,1.353-.391A12.161,12.161,0,0,0,163.6.506l.32-.332L184.637.166l.321.332a12.145,12.145,0,0,0,3.49,2.63,3.6,3.6,0,0,0,1.352.391,3.623,3.623,0,0,0,1.355-.391A12.1,12.1,0,0,0,194.645.494l.32-.332,16.859,0,.322.331a12.139,12.139,0,0,0,3.489,2.633,3.571,3.571,0,0,0,1.352.391,3.581,3.581,0,0,0,1.352-.392A12.157,12.157,0,0,0,221.831.489l.321-.332L242.866.149l.322.331a12.142,12.142,0,0,0,3.489,2.631,3.575,3.575,0,0,0,1.352.39,3.593,3.593,0,0,0,1.355-.391A12.078,12.078,0,0,0,252.874.477l.32-.331,16.858,0,.322.332a12.139,12.139,0,0,0,3.489,2.633,3.587,3.587,0,0,0,1.352.391,3.581,3.581,0,0,0,1.352-.392A12.148,12.148,0,0,0,280.06.472l.321-.332L301.094.132l.322.332a12.125,12.125,0,0,0,3.489,2.63,3.59,3.59,0,0,0,1.352.391,3.592,3.592,0,0,0,1.355-.391A12.1,12.1,0,0,0,311.1.461l.321-.331,16.859,0,.321.331a12.147,12.147,0,0,0,3.49,2.633,3.573,3.573,0,0,0,1.352.391,3.583,3.583,0,0,0,1.352-.391A12.173,12.173,0,0,0,338.29.456l.32-.332L359.324.115l.322.331a12.139,12.139,0,0,0,3.49,2.631,3.577,3.577,0,0,0,1.352.39,3.593,3.593,0,0,0,1.356-.391A12.084,12.084,0,0,0,369.332.444l.32-.332,16.859,0,.322.331a12.131,12.131,0,0,0,3.49,2.633,3.586,3.586,0,0,0,1.352.391,3.579,3.579,0,0,0,1.353-.392A12.15,12.15,0,0,0,396.519.438l.321-.331L417.553.1l.322.331a12.132,12.132,0,0,0,3.49,2.63,3.585,3.585,0,0,0,1.352.391,3.6,3.6,0,0,0,1.355-.391A12.1,12.1,0,0,0,427.561.427l.32-.332,16.858,0,.322.332a12.13,12.13,0,0,0,3.49,2.633,3.594,3.594,0,0,0,1.352.391,3.591,3.591,0,0,0,1.352-.392A12.153,12.153,0,0,0,454.747.422l.32-.332L475.782.081l.322.332a12.138,12.138,0,0,0,3.489,2.63,3.585,3.585,0,0,0,1.352.391,3.608,3.608,0,0,0,1.355-.391A12.087,12.087,0,0,0,485.79.41l.321-.332,16.859,0,.322.331a12.139,12.139,0,0,0,3.489,2.633,3.571,3.571,0,0,0,1.352.391,3.585,3.585,0,0,0,1.352-.391A12.173,12.173,0,0,0,512.977.4L513.3.073,534.011.064l.322.331a12.141,12.141,0,0,0,3.489,2.631,3.577,3.577,0,0,0,1.352.39,3.592,3.592,0,0,0,1.356-.391A12.074,12.074,0,0,0,544.019.393l.321-.331,16.858,0,.322.332a12.138,12.138,0,0,0,3.49,2.633,3.585,3.585,0,0,0,1.352.391,3.579,3.579,0,0,0,1.353-.392A12.141,12.141,0,0,0,571.206.388l.32-.332L592.24.047l.322.332a12.1,12.1,0,0,0,3.494,2.63,3.606,3.606,0,0,0,1.356.391,3.575,3.575,0,0,0,1.351-.391A12.109,12.109,0,0,0,602.248.376l.321-.331,16.859,0,.322.331a12.138,12.138,0,0,0,3.489,2.633,3.572,3.572,0,0,0,1.352.391,3.581,3.581,0,0,0,1.353-.391A12.172,12.172,0,0,0,629.435.371l.32-.332L650.47.03l.322.331a12.109,12.109,0,0,0,3.494,2.631,3.617,3.617,0,0,0,1.356.391,3.59,3.59,0,0,0,1.352-.391A12.117,12.117,0,0,0,660.478.359l.32-.332,16.859,0,.322.331a12.111,12.111,0,0,0,3.493,2.633,3.59,3.59,0,0,0,1.356.391,3.562,3.562,0,0,0,1.349-.392A12.168,12.168,0,0,0,687.664.354l.32-.331L708.7.014l.322.331a12.1,12.1,0,0,0,3.494,2.631,3.592,3.592,0,0,0,1.356.39,3.573,3.573,0,0,0,1.351-.391A12.11,12.11,0,0,0,718.706.343l.321-.332,16.858,0,.322.332A12.107,12.107,0,0,0,739.7,2.973a3.592,3.592,0,0,0,1.356.391,3.552,3.552,0,0,0,1.348-.391A12.189,12.189,0,0,0,745.893.337l.321-.332L760.788,0l0,9.92-.331.322a12.111,12.111,0,0,0-2.631,3.493,3.591,3.591,0,0,0-.39,1.357,3.581,3.581,0,0,0,.391,1.351,12.114,12.114,0,0,0,2.633,3.485l.332.321,0,16.859-.331.321a12.118,12.118,0,0,0-2.633,3.494,3.6,3.6,0,0,0-.391,1.357,3.562,3.562,0,0,0,.392,1.348,12.186,12.186,0,0,0,2.635,3.488l.332.321.008,20.713-.331.322a12.106,12.106,0,0,0-2.63,3.493,2.539,2.539,0,0,0,0,2.708,12.113,12.113,0,0,0,2.633,3.485l.332.321,0,16.858-.332.322a12.1,12.1,0,0,0-2.633,3.493,2.532,2.532,0,0,0,0,2.705,12.17,12.17,0,0,0,2.635,3.488l.332.321.009,20.714-.332.322a12.111,12.111,0,0,0-2.63,3.493,2.542,2.542,0,0,0,0,2.708,12.108,12.108,0,0,0,2.633,3.485l.332.321,0,16.859-.331.322a12.109,12.109,0,0,0-2.633,3.493,2.534,2.534,0,0,0,0,2.7,12.2,12.2,0,0,0,2.636,3.488l.331.32.009,20.714-.331.322a12.11,12.11,0,0,0-2.631,3.494,2.542,2.542,0,0,0,0,2.708,12.116,12.116,0,0,0,2.633,3.485l.332.32,0,16.859-.332.322a12.118,12.118,0,0,0-2.633,3.493,2.531,2.531,0,0,0,0,2.7,12.178,12.178,0,0,0,2.635,3.488l.331.321.009,20.713-.331.322a12.115,12.115,0,0,0-2.631,3.493,2.54,2.54,0,0,0,0,2.707,12.117,12.117,0,0,0,2.633,3.485l.331.321,0,16.858-.331.322a12.094,12.094,0,0,0-2.633,3.493,3.591,3.591,0,0,0-.391,1.357,3.553,3.553,0,0,0,.391,1.348,12.211,12.211,0,0,0,2.635,3.489l.332.32.009,20.713-.332.322a12.118,12.118,0,0,0-2.63,3.493,2.543,2.543,0,0,0,0,2.708,12.116,12.116,0,0,0,2.633,3.484l.332.321,0,16.859-.331.322a12.117,12.117,0,0,0-2.633,3.493,2.533,2.533,0,0,0,0,2.7,12.2,12.2,0,0,0,2.635,3.488l.332.32.009,20.714-.331.322a12.1,12.1,0,0,0-2.63,3.493,2.539,2.539,0,0,0,0,2.708,12.114,12.114,0,0,0,2.633,3.485l.331.321,0,16.858-.332.322a12.109,12.109,0,0,0-2.633,3.493,2.532,2.532,0,0,0,0,2.7,12.17,12.17,0,0,0,2.635,3.488l.332.32v9.565h.008l0,14.5" transform="translate(2.501 2.501)" fill="none" stroke="#000" stroke-miterlimit="10" stroke-width="5" fill-rule="evenodd"/>
</svg>
